<?xml version="1.0" standalone="no"?>
<!DOCTYPE svg PUBLIC "-//W3C//DTD SVG 20010904//EN"
 "http://www.w3.org/TR/2001/REC-SVG-20010904/DTD/svg10.dtd">
<svg version="1.0" xmlns="http://www.w3.org/2000/svg"
 width="1280.000000pt" height="643.000000pt" viewBox="0 0 1280.000000 643.000000"
 preserveAspectRatio="xMidYMid meet">
<g transform="translate(0.000000,643.000000) scale(0.100000,-0.100000)"
fill="#000000" stroke="none">
<path d="M3877 6392 c-196 -106 -369 -351 -453 -642 -48 -168 -79 -222 -200
-350 -57 -59 -114 -130 -128 -157 -13 -27 -43 -114 -66 -194 -72 -252 -179
-558 -229 -657 -45 -88 -172 -149 -532 -256 -47 -15 -92 -26 -102 -26 -9 0
-92 41 -184 91 -379 206 -387 211 -653 429 -222 183 -295 236 -424 310 -145
82 -269 174 -348 258 -59 63 -96 117 -189 275 -19 33 -42 63 -52 68 -40 22
-97 -49 -97 -122 0 -76 40 -143 153 -255 111 -109 256 -211 461 -324 126 -69
133 -75 473 -331 409 -309 717 -493 1199 -717 145 -68 190 -94 298 -177 125
-97 211 -180 226 -221 11 -27 -12 -159 -38 -215 -11 -24 -47 -80 -81 -124
-135 -177 -190 -325 -198 -535 -10 -250 52 -467 242 -855 138 -279 203 -367
517 -687 216 -221 327 -292 344 -222 12 46 -4 383 -26 559 -83 674 -235 1449
-339 1735 -53 143 -135 239 -275 320 -31 17 -64 44 -73 58 -9 15 -29 46 -44
69 -49 70 -39 74 61 30 98 -43 543 -196 870 -298 124 -39 237 -77 253 -85 74
-39 157 -165 195 -299 29 -103 60 -317 86 -600 23 -244 24 -247 25 -135 2 239
-33 619 -64 694 -20 47 -19 56 6 56 23 0 140 -54 209 -96 38 -23 42 -24 26 -6
-37 43 -200 146 -252 161 -15 4 -37 35 -68 95 -25 49 -43 92 -41 96 4 7 54 -3
199 -41 45 -12 133 -91 205 -184 55 -71 141 -213 141 -232 0 -7 11 -31 25 -52
33 -49 91 -198 111 -281 8 -36 24 -80 35 -98 10 -19 16 -38 13 -44 -4 -6 2 -8
17 -4 13 3 19 3 13 1 -8 -4 -9 -20 -4 -48 4 -23 14 -73 20 -112 18 -99 61
-212 106 -281 21 -32 95 -117 164 -189 69 -71 147 -156 173 -187 54 -63 113
-103 171 -113 20 -4 40 -13 43 -21 7 -18 33 -6 33 16 0 10 -7 20 -15 24 -8 3
-15 14 -15 24 0 28 -28 132 -49 182 -133 319 -280 593 -334 622 l-21 11 22 8
c12 5 22 16 22 26 0 42 -215 263 -375 385 -61 47 -77 66 -121 148 -51 93 -162
268 -206 322 -12 15 -19 30 -16 34 7 6 666 -104 838 -141 229 -49 274 -69 384
-174 62 -60 75 -80 143 -221 41 -85 99 -218 130 -295 30 -77 63 -158 73 -180
35 -81 43 -139 35 -286 -6 -105 -11 -142 -21 -146 -20 -7 -20 -159 0 -166 9
-4 16 -32 21 -83 16 -169 85 -293 258 -461 120 -116 226 -197 321 -246 66 -34
70 -35 101 -20 37 18 62 60 73 123 5 26 13 44 20 43 17 -4 15 18 -3 31 -21 16
-33 199 -15 221 11 13 10 18 -4 28 -11 9 -17 32 -20 82 -3 39 -7 77 -10 85 -2
8 -12 53 -21 100 -30 161 -98 419 -135 510 -10 25 -24 60 -31 79 -19 51 -104
177 -168 250 -93 107 -273 242 -461 349 -105 59 -324 272 -303 293 17 17 1007
-234 1170 -296 116 -45 264 -119 343 -171 35 -23 175 -199 209 -261 6 -11 33
-105 61 -208 150 -550 400 -1037 599 -1166 55 -36 94 -37 126 -4 22 21 25 33
25 97 0 40 -9 125 -21 188 -11 63 -24 180 -28 260 -6 111 -13 158 -30 202 -31
79 -104 189 -188 279 -63 68 -71 81 -77 127 -13 97 -44 176 -87 226 -51 58
-171 120 -378 196 -87 33 -168 70 -205 95 -33 23 -82 54 -108 69 -27 15 -48
33 -48 38 0 13 24 10 315 -36 121 -19 298 -44 393 -55 215 -25 249 -39 347
-141 219 -231 239 -249 321 -299 76 -47 93 -63 169 -165 82 -110 153 -181 225
-225 57 -34 66 -24 13 17 -70 56 -152 149 -197 223 -66 108 -103 146 -214 219
-59 38 -117 77 -130 86 -13 8 -56 57 -96 107 -40 51 -83 101 -95 111 -41 37
-28 46 62 46 262 0 712 -107 948 -225 166 -84 458 -275 478 -314 5 -9 14 -63
20 -121 17 -150 46 -312 76 -413 67 -232 131 -301 446 -486 61 -36 163 -110
238 -174 208 -176 198 -170 259 -165 70 6 87 24 87 91 0 75 -38 180 -130 362
-234 464 -428 733 -582 805 -183 87 -211 99 -248 108 -22 6 -64 13 -94 17 -94
11 -217 113 -153 127 9 3 82 2 162 0 87 -3 159 0 180 6 30 10 27 10 -28 5 -41
-4 -108 2 -200 16 -261 42 -275 46 -431 125 -170 86 -287 129 -540 196 -101
27 -188 55 -192 62 -9 14 5 34 35 50 53 28 131 41 286 47 l165 6 -93 9 c-60 6
-95 13 -100 22 -6 11 -28 8 -117 -16 -266 -72 -344 -84 -555 -84 -202 0 -298
8 -585 50 -179 25 -205 31 -205 43 0 4 47 29 104 55 210 96 406 229 570 387
l111 106 150 12 c184 16 230 28 370 96 138 68 254 155 377 284 139 144 141
163 4 38 -181 -165 -305 -245 -475 -307 -45 -17 -92 -37 -104 -44 -38 -25
-251 -49 -269 -30 -6 5 111 187 186 289 70 95 203 322 223 378 13 40 17 81 16
182 -1 85 2 134 10 143 8 11 7 16 -6 23 -25 14 -24 114 1 128 11 7 12 10 3 11
-16 0 -13 20 23 145 25 88 37 255 19 255 -5 0 -24 -26 -44 -58 -105 -164 -210
-463 -234 -665 -5 -36 -13 -61 -23 -66 -13 -7 -14 -12 -3 -24 16 -20 -1 -306
-23 -395 -8 -31 -17 -73 -20 -92 -13 -71 -186 -279 -344 -411 -196 -164 -454
-308 -691 -385 l-114 -37 -101 18 c-143 24 -264 55 -519 131 -122 36 -283 81
-357 100 -74 19 -136 37 -139 39 -9 10 11 17 144 50 185 47 295 85 455 160 74
34 155 70 178 81 24 10 81 42 125 71 45 29 86 53 90 53 17 0 115 80 160 130
66 73 135 228 154 343 3 21 12 41 19 44 17 6 18 43 3 93 -16 51 -4 130 19 130
14 0 14 2 3 9 -12 7 -12 17 -3 53 6 23 25 102 42 173 17 72 36 141 42 155 6
14 12 36 13 50 1 14 9 52 18 85 61 232 107 459 94 471 -25 25 -235 -176 -302
-288 -5 -9 -52 -86 -103 -170 -96 -158 -311 -576 -374 -730 -20 -48 -40 -107
-44 -133 -3 -26 -13 -49 -20 -52 -17 -6 -19 -44 -3 -40 7 1 24 -50 42 -122 23
-95 27 -128 19 -142 -9 -13 -8 -18 3 -23 22 -8 18 -31 -16 -92 -27 -47 -41
-60 -98 -88 -202 -102 -496 -178 -835 -215 -97 -11 -71 -15 -911 135 -320 58
-379 72 -374 89 2 6 27 19 55 31 79 32 362 196 381 221 7 9 23 17 35 18 31 2
104 35 283 125 262 133 365 214 459 361 26 41 77 101 112 134 59 55 70 72 128
200 35 77 72 164 82 192 18 52 18 54 0 88 -13 24 -16 38 -9 47 13 17 46 148
39 155 -16 16 -214 -83 -325 -161 -61 -44 -63 -46 -35 -47 29 -1 29 -1 4 -9
-14 -4 -41 -8 -60 -9 -19 -1 -71 -19 -116 -42 -71 -35 -98 -57 -198 -159 -90
-93 -123 -120 -148 -124 -18 -3 -91 -15 -163 -27 -205 -32 -357 -74 -489 -133
-33 -14 -61 -24 -63 -22 -16 15 209 299 341 432 127 128 171 156 299 200 54
18 81 22 125 18 43 -5 72 -1 117 14 89 31 204 97 295 169 81 65 323 313 402
413 51 64 143 191 149 205 2 6 21 39 41 75 43 77 105 224 123 295 20 74 28
168 21 219 -7 45 -7 45 -27 25 -10 -10 -26 -19 -34 -19 -40 0 -195 -100 -400
-258 -231 -177 -285 -242 -370 -447 -70 -168 -85 -198 -138 -269 -124 -168
-250 -297 -419 -428 -120 -94 -306 -283 -445 -453 -72 -88 -157 -188 -189
-223 -56 -60 -64 -65 -164 -98 -147 -49 -344 -88 -371 -74 -11 6 -19 17 -16
23 2 7 39 40 83 75 140 112 273 250 371 384 150 206 368 638 440 873 8 28 19
59 23 70 11 30 26 84 39 140 7 28 16 66 21 85 5 19 14 71 20 115 18 121 26
150 38 148 7 -2 12 4 12 12 0 19 -20 19 -56 0 -16 -8 -37 -15 -48 -15 -39 0
-149 -64 -213 -123 -171 -160 -615 -767 -718 -982 -49 -103 -61 -147 -71 -263
-4 -57 -11 -85 -21 -91 -12 -6 -13 -12 -4 -29 14 -27 13 -109 -3 -197 -15 -82
-23 -100 -88 -181 -41 -51 -63 -68 -126 -97 -43 -20 -104 -43 -137 -52 -87
-24 -248 -30 -373 -15 -98 12 -122 19 -297 95 -104 45 -219 94 -255 108 -94
40 -373 190 -377 204 -3 6 49 37 119 70 68 33 150 77 183 98 l60 39 165 6
c188 8 212 15 317 94 73 55 323 324 370 398 48 75 71 157 88 308 20 177 34
217 101 290 70 75 115 173 159 344 46 179 75 379 82 563 5 132 4 156 -11 178
-9 14 -20 25 -24 24 -4 -1 -38 -17 -75 -37z m2333 -862 c0 -5 -5 -10 -11 -10
-5 0 -7 5 -4 10 3 6 8 10 11 10 2 0 4 -4 4 -10z m286 -6 c17 -14 17 -15 1 -10
-10 3 -31 6 -45 6 -21 0 -24 2 -12 10 21 14 33 12 56 -6z m-326 -31 c-1 -10
-50 -46 -50 -37 0 11 32 44 42 44 4 0 8 -3 8 -7z m110 -8 c-7 -8 -17 -15 -22
-15 -6 0 -5 7 2 15 7 8 17 15 22 15 6 0 5 -7 -2 -15z m150 -7 c0 -18 -2 -20
-9 -8 -6 8 -7 18 -5 22 9 14 14 9 14 -14z m-190 -21 c0 -2 -19 -21 -42 -42
-39 -38 -40 -39 -19 -8 21 31 61 64 61 50z m-390 -501 c0 -3 -4 -8 -10 -11 -5
-3 -10 -1 -10 4 0 6 5 11 10 11 6 0 10 -2 10 -4z m-1335 -427 c-9 -17 -19 -29
-21 -26 -7 7 18 57 28 57 5 0 1 -14 -7 -31z m76 -22 c-8 -8 -11 -7 -11 4 0 20
13 34 18 19 3 -7 -1 -17 -7 -23z m1655 -34 c-11 -11 -148 -14 -141 -3 3 6 38
10 77 10 39 0 68 -3 64 -7z m-211 -13 c3 -5 -1 -10 -10 -10 -9 0 -13 5 -10 10
3 6 8 10 10 10 2 0 7 -4 10 -10z m2711 -398 c-13 -12 -17 8 -9 44 l8 39 3 -39
c2 -21 1 -41 -2 -44z m-80 12 c-3 -9 -6 -20 -6 -25 0 -6 -4 -8 -9 -5 -12 8 -2
46 11 46 6 0 7 -7 4 -16z m-3216 2 c0 -2 -40 -50 -90 -107 -107 -122 -113
-145 -41 -139 14 1 21 -2 17 -9 -4 -6 -15 -11 -25 -11 -17 0 -53 -34 -84 -80
-113 -167 -116 -172 -169 -278 -34 -70 -39 -85 -27 -94 11 -8 10 -9 -3 -4 -10
3 -18 2 -18 -3 0 -4 -24 -39 -53 -77 -49 -63 -60 -71 -125 -97 -43 -16 -112
-32 -170 -39 l-97 -11 -160 47 c-192 58 -650 209 -792 262 -57 21 -103 43
-103 49 0 6 42 23 93 37 52 15 123 40 159 57 36 17 80 31 99 31 55 0 287 37
379 60 154 38 243 72 440 165 107 51 236 108 285 128 72 28 263 81 400 110 27
6 85 8 85 3z m3196 -83 c-11 -11 -19 6 -11 24 8 17 8 17 12 0 3 -10 2 -21 -1
-24z m-4360 -15 c-18 -26 -22 -17 -5 14 6 11 13 17 16 15 3 -3 -2 -16 -11 -29z
m4442 -25 c-2 -9 -8 -18 -15 -20 -7 -3 -9 3 -6 16 6 25 26 28 21 4z m-2718
-13 c0 -5 -7 -10 -16 -10 -8 0 -12 5 -9 10 3 6 10 10 16 10 5 0 9 -4 9 -10z
m-95 -20 c-3 -5 -13 -10 -21 -10 -8 0 -12 5 -9 10 3 6 13 10 21 10 8 0 12 -4
9 -10z m-115 -20 c0 -5 -7 -10 -16 -10 -8 0 -12 5 -9 10 3 6 10 10 16 10 5 0
9 -4 9 -10z m2826 -17 c-10 -10 -19 5 -10 18 6 11 8 11 12 0 2 -7 1 -15 -2
-18z m-3061 -23 c-3 -5 -21 -9 -38 -9 l-32 1 30 8 c43 11 47 11 40 0z m-100
-19 c-6 -5 -26 -10 -45 -11 -51 -3 -60 2 -20 10 53 11 75 11 65 1z m14 -96
c-46 -47 -88 -85 -93 -85 -6 0 30 40 79 90 49 49 91 87 93 85 3 -2 -33 -43
-79 -90z m3231 76 c0 -6 -4 -13 -10 -16 -5 -3 -10 1 -10 9 0 9 5 16 10 16 6 0
10 -4 10 -9z m-1352 -93 c-14 -39 -29 -35 -22 5 10 55 15 65 24 42 4 -11 3
-32 -2 -47z m82 22 c0 -16 -4 -31 -9 -34 -10 -7 -19 30 -13 57 5 27 22 10 22
-23z m-1940 -114 c0 -2 -8 -10 -17 -17 -16 -13 -17 -12 -4 4 13 16 21 21 21
13z m1600 -346 c0 -5 -5 -10 -11 -10 -5 0 -7 5 -4 10 3 6 8 10 11 10 2 0 4 -4
4 -10z m-856 -1056 c5 -14 4 -15 -9 -4 -17 14 -19 20 -6 20 5 0 12 -7 15 -16z
m31 -34 c3 -5 1 -10 -4 -10 -6 0 -11 5 -11 10 0 6 2 10 4 10 3 0 8 -4 11 -10z
m-1085 -50 c13 -8 13 -10 -2 -10 -9 0 -20 5 -23 10 -8 13 5 13 25 0z m185 -40
c8 -13 -15 -13 -35 0 -12 8 -11 10 7 10 12 0 25 -4 28 -10z m79 -376 c3 -9 6
-25 6 -37 0 -27 -15 -11 -24 26 -7 29 8 38 18 11z m86 -20 c0 -8 -4 -14 -10
-14 -5 0 -10 9 -10 21 0 11 5 17 10 14 6 -3 10 -13 10 -21z"/>
<path d="M9620 3570 c0 -24 41 -28 59 -7 14 18 4 27 -31 27 -21 0 -28 -5 -28
-20z"/>
<path d="M9135 2590 c-22 -10 -33 -19 -25 -19 8 0 31 8 50 19 45 24 28 24 -25
0z"/>
<path d="M9565 2520 c3 -5 8 -10 11 -10 2 0 4 5 4 10 0 6 -5 10 -11 10 -5 0
-7 -4 -4 -10z"/>
<path d="M9715 2523 c-11 -3 -24 -9 -29 -14 -17 -15 27 -10 48 6 20 15 17 16
-19 8z"/>
<path d="M9498 2503 c6 -2 18 -2 25 0 6 3 1 5 -13 5 -14 0 -19 -2 -12 -5z"/>
<path d="M10720 2437 c-20 -28 -49 -58 -65 -66 -16 -8 -78 -59 -138 -113 -137
-124 -198 -171 -290 -219 -77 -41 -69 -49 25 -23 48 14 70 15 122 6 81 -13
144 0 211 43 67 43 129 115 172 200 31 60 36 80 37 145 1 68 -1 75 -19 77 -14
2 -30 -12 -55 -50z m-50 -105 c0 -12 -59 -66 -65 -60 -3 3 7 19 22 36 28 30
43 39 43 24z"/>
<path d="M9260 2469 c0 -11 62 -27 126 -34 l49 -5 -50 15 c-84 25 -125 33
-125 24z"/>
</g>
</svg>
